if (_typeface_js && _typeface_js.loadFace) _typeface_js.loadFace({"glyphs":{"S":{"x_min":44.359375,"x_max":686.71875,"ha":731,"o":"m 380 937 q 516 921 447 937 q 646 869 586 905 l 646 721 q 378 802 512 802 q 266 772 309 802 q 223 689 223 742 q 245 627 223 652 q 301 585 268 601 q 389 550 335 569 q 539 490 479 520 q 643 405 599 460 q 686 266 686 350 q 640 117 686 180 q 515 21 594 54 q 342 -11 436 -11 q 195 8 267 -11 q 44 73 124 28 l 44 228 q 198 151 116 179 q 352 123 279 123 q 474 159 424 123 q 524 256 524 195 q 495 331 524 300 q 427 380 466 362 q 330 416 388 397 q 190 473 247 441 q 96 556 132 505 q 61 681 61 606 q 103 821 61 763 q 217 908 145 879 q 380 937 290 937 "},"F":{"x_min":100.296875,"x_max":687.6875,"ha":699,"o":"m 629 524 l 629 394 l 262 394 l 262 0 l 100 0 l 100 925 l 687 925 l 687 790 l 262 790 l 262 524 l 629 524 "},"T":{"x_min":29.890625,"x_max":778.359375,"ha":809,"o":"m 323 0 l 323 790 l 29 790 l 29 925 l 778 925 l 778 790 l 485 790 l 485 0 l 323 0 "},"N":{"x_min":97.40625,"x_max":947.140625,"ha":1046,"o":"m 252 0 l 97 0 l 97 925 l 271 925 l 791 238 l 791 925 l 947 925 l 947 0 l 773 0 l 252 687 l 252 0 "},"K":{"x_min":100.296875,"x_max":865.15625,"ha":883,"o":"m 262 925 l 262 0 l 100 0 l 100 925 l 262 925 m 273 491 l 608 925 l 807 925 l 461 496 l 865 0 l 659 0 l 273 491 "},"Y":{"x_min":21.21875,"x_max":881.5625,"ha":904,"o":"m 370 445 l 21 925 l 223 925 l 454 591 l 684 925 l 881 925 l 532 445 l 532 0 l 370 0 l 370 445 "},"E":{"x_min":100.296875,"x_max":687.6875,"ha":745,"o":"m 629 535 l 629 405 l 262 405 l 262 135 l 687 135 l 687 0 l 100 0 l 100 925 l 687 925 l 687 790 l 262 790 l 262 535 l 629 535 "},"V":{"x_min":47.25,"x_max":939.421875,"ha":989,"o":"m 225 925 l 493 208 l 761 925 l 939 925 l 580 0 l 406 0 l 47 925 l 225 925 "},"Z":{"x_min":45.328125,"x_max":794.75,"ha":841,"o":"m 794 0 l 45 0 l 45 135 l 586 790 l 45 790 l 45 925 l 794 925 l 794 790 l 253 135 l 794 135 l 794 0 "},"Q":{"x_min":29.890625,"x_max":1009.828125,"ha":1042,"o":"m 1009 462 q 975 285 1009 368 q 878 136 940 201 l 1009 0 l 842 0 l 783 60 q 519 -11 664 -11 q 273 51 385 -11 q 95 222 161 113 q 29 462 29 330 q 95 703 29 595 q 273 874 161 812 q 519 937 385 937 q 766 874 653 937 q 944 703 878 812 q 1009 462 1009 595 m 519 138 q 671 177 602 138 l 508 347 l 677 347 l 764 255 q 816 351 798 298 q 835 462 835 404 q 792 627 835 553 q 678 744 750 702 q 519 787 605 787 q 361 744 434 787 q 246 627 289 702 q 204 462 204 553 q 246 298 204 372 q 361 181 289 223 q 519 138 434 138 "},"M":{"x_min":101.265625,"x_max":1070.59375,"ha":1173,"o":"m 627 284 l 540 284 l 256 691 l 256 0 l 101 0 l 101 925 l 283 925 l 586 493 l 885 925 l 1070 925 l 1070 0 l 908 0 l 908 692 l 627 284 "},"C":{"x_min":29.890625,"x_max":846.828125,"ha":893,"o":"m 507 937 q 695 907 612 937 q 846 822 779 877 l 846 643 q 701 749 782 712 q 529 787 620 787 q 365 745 439 787 q 247 628 291 703 q 204 462 204 554 q 247 297 204 371 q 365 180 291 222 q 529 138 439 138 q 701 176 620 138 q 846 281 782 213 l 846 103 q 698 17 781 46 q 507 -11 615 -11 q 267 51 377 -11 q 94 222 158 113 q 29 462 29 330 q 94 703 29 595 q 267 874 158 812 q 507 937 377 937 "},"L":{"x_min":113.8125,"x_max":701.1875,"ha":726,"o":"m 113 0 l 113 925 l 275 925 l 275 150 l 701 150 l 701 0 l 113 0 "},"A":{"x_min":47.25,"x_max":939.421875,"ha":989,"o":"m 406 925 l 580 925 l 939 0 l 777 0 l 682 252 l 304 252 l 209 0 l 47 0 l 406 925 m 493 783 l 352 387 l 634 387 l 493 783 "},"J":{"x_min":-0.96875,"x_max":540.125,"ha":641,"o":"m 540 310 q 502 140 540 213 q 395 27 464 67 q 234 -11 326 -11 q 105 9 166 -11 q 0 68 43 30 l 0 246 q 95 174 43 200 q 197 148 148 148 q 326 193 275 148 q 378 326 378 239 l 378 925 l 540 925 l 540 310 "},"O":{"x_min":29.890625,"x_max":1009.828125,"ha":1042,"o":"m 519 937 q 766 874 653 937 q 944 703 878 812 q 1009 462 1009 595 q 944 222 1009 330 q 766 51 878 113 q 519 -11 653 -11 q 273 51 385 -11 q 95 222 161 113 q 29 462 29 330 q 95 703 29 595 q 273 874 161 812 q 519 937 385 937 m 519 787 q 361 744 434 787 q 246 627 289 702 q 204 462 204 553 q 246 298 204 372 q 361 181 289 223 q 519 138 434 138 q 678 181 605 138 q 792 298 750 223 q 835 462 835 372 q 792 627 835 553 q 678 744 750 702 q 519 787 605 787 "},"W":{"x_min":33.75,"x_max":1353.203125,"ha":1389,"o":"m 485 0 l 323 0 l 33 925 l 195 925 l 404 229 l 612 925 l 774 925 l 982 229 l 1191 925 l 1353 925 l 1063 0 l 901 0 l 693 696 l 485 0 "}," ":{"x_min":0,"x_max":0,"ha":421},"X":{"x_min":21.21875,"x_max":912.421875,"ha":936,"o":"m 464 365 l 217 0 l 21 0 l 367 481 l 50 925 l 252 925 l 469 600 l 687 925 l 883 925 l 567 485 l 912 0 l 709 0 l 464 365 "},"P":{"x_min":100.296875,"x_max":744.59375,"ha":788,"o":"m 440 925 q 593 886 523 925 q 703 779 662 846 q 744 631 744 711 q 703 484 744 551 q 593 377 662 416 q 440 337 523 337 l 262 337 l 262 0 l 100 0 l 100 925 l 440 925 m 421 472 q 501 493 464 472 q 559 551 538 515 q 580 631 580 588 q 559 711 580 675 q 501 769 538 748 q 421 790 464 790 l 262 790 l 262 472 l 421 472 "},"B":{"x_min":100.296875,"x_max":776.421875,"ha":820,"o":"m 429 925 q 579 894 513 925 q 681 808 645 863 q 718 685 718 754 q 687 574 718 625 q 601 493 655 523 q 728 404 680 466 q 776 261 776 341 q 736 127 776 187 q 626 33 697 67 q 466 0 556 0 l 100 0 l 100 925 l 429 925 m 423 543 q 491 560 461 543 q 539 607 521 577 q 556 672 556 636 q 539 736 556 706 q 491 784 521 766 q 423 801 461 801 l 262 801 l 262 543 l 423 543 m 460 124 q 538 144 503 124 q 594 199 573 164 q 614 274 614 233 q 594 350 614 315 q 538 404 573 384 q 460 424 503 424 l 262 424 l 262 124 l 460 124 "},"H":{"x_min":100.296875,"x_max":912.421875,"ha":1016,"o":"m 269 395 l 269 0 l 100 0 l 100 925 l 269 925 l 269 545 l 744 545 l 744 925 l 912 925 l 912 0 l 744 0 l 744 395 l 269 395 "},"D":{"x_min":100.296875,"x_max":958.71875,"ha":991,"o":"m 473 925 q 717 865 606 925 q 893 698 828 804 q 958 462 958 593 q 893 227 958 332 q 717 60 828 121 q 473 0 606 0 l 100 0 l 100 925 l 473 925 m 473 145 q 629 186 558 145 q 742 300 701 227 q 784 462 784 373 q 742 625 784 552 q 629 738 701 697 q 473 779 558 779 l 262 779 l 262 145 l 473 145 "},"R":{"x_min":108.015625,"x_max":809.21875,"ha":847,"o":"m 448 925 q 600 886 531 925 q 711 779 670 846 q 752 631 752 711 q 703 475 752 544 q 575 376 653 406 l 809 0 l 624 0 l 414 337 l 270 337 l 270 0 l 108 0 l 108 925 l 448 925 m 430 472 q 509 493 472 472 q 567 551 545 515 q 588 631 588 588 q 567 711 588 675 q 509 769 545 748 q 430 790 472 790 l 270 790 l 270 472 l 430 472 "},"I":{"x_min":109.953125,"x_max":271.984375,"ha":384,"o":"m 271 925 l 271 0 l 109 0 l 109 925 l 271 925 "},"G":{"x_min":29.890625,"x_max":878.65625,"ha":951,"o":"m 535 937 q 717 908 623 937 q 878 823 811 879 l 878 654 q 724 751 813 715 q 544 787 636 787 q 368 745 446 787 q 247 629 291 703 q 204 462 204 555 q 248 292 204 368 q 368 172 292 216 q 540 128 445 128 q 646 148 593 128 q 742 203 700 168 l 742 384 l 519 384 l 519 505 l 878 505 l 878 114 q 712 21 805 54 q 523 -11 619 -11 q 273 51 386 -11 q 95 222 161 113 q 29 462 29 330 q 93 700 29 592 q 271 873 156 809 q 535 937 385 937 "},"U":{"x_min":83.90625,"x_max":870.953125,"ha":957,"o":"m 870 379 q 818 176 870 265 q 675 38 765 87 q 477 -11 585 -11 q 279 37 369 -11 q 136 176 189 86 q 83 379 83 265 l 83 925 l 252 925 l 252 379 q 282 252 252 307 q 363 167 311 197 q 477 136 414 136 q 591 167 540 136 q 673 253 643 197 q 703 379 703 308 l 703 925 l 870 925 l 870 379 "}}}
